<mxfile host="app.diagrams.net" agent="Mozilla/5.0 (Windows NT 10.0; Win64; x64) AppleWebKit/537.36 (KHTML, like Gecko) Chrome/121.0.0.0 Safari/537.36" version="24.7.8">
  <diagram name="第 1 页" id="qHCgXSYTzzumiglc0Adv">
    <mxGraphModel dx="1373" dy="830" grid="0" gridSize="10" guides="1" tooltips="1" connect="1" arrows="1" fold="1" page="0" pageScale="1" pageWidth="827" pageHeight="1169" math="0" shadow="0">
      <root>
        <mxCell id="0" />
        <mxCell id="1" parent="0" />
        <mxCell id="DD-taFXnz9ZpeqrUZeBg-1" value="src&lt;div&gt;(10, 32, 512)&lt;/div&gt;" style="rounded=1;whiteSpace=wrap;html=1;" vertex="1" parent="1">
          <mxGeometry x="-41" y="37" width="120" height="60" as="geometry" />
        </mxCell>
        <mxCell id="DD-taFXnz9ZpeqrUZeBg-2" value="tgt&lt;div&gt;(20, 32, 512)&lt;/div&gt;" style="rounded=1;whiteSpace=wrap;html=1;" vertex="1" parent="1">
          <mxGeometry x="137" y="34" width="120" height="60" as="geometry" />
        </mxCell>
      </root>
    </mxGraphModel>
  </diagram>
</mxfile>
